<svg width="125.4" height="88.001" viewBox="0 0 125.4 88.001" xmlns="http://www.w3.org/2000/svg"><g id="svgGroup" stroke-linecap="round" fill-rule="evenodd" font-size="9pt" stroke="#00000000" stroke-width="0.25mm" fill="#f1f3f5" style="stroke:#00000000;stroke-width:0.25mm;fill:#f1f3f5"><path d="M 36.4 88 L 26.7 88 Q 22.33 88 19.415 86.692 A 9.495 9.495 0 0 1 16.25 84.45 Q 13.124 81.035 13.005 73.596 A 37.216 37.216 0 0 1 13 73 L 13 60 A 27.492 27.492 0 0 0 12.805 56.609 Q 12.36 53.04 10.9 50.85 A 6.748 6.748 0 0 0 5.991 47.785 A 9.511 9.511 0 0 0 4.7 47.7 L 0 47.7 L 0 40.3 L 4.7 40.3 A 8.434 8.434 0 0 0 7.382 39.896 A 6.702 6.702 0 0 0 10.9 37.15 A 10.717 10.717 0 0 0 12.2 34.321 Q 12.623 32.935 12.823 31.246 A 27.78 27.78 0 0 0 13 28 L 13 15 Q 13 7 16.25 3.5 Q 18.761 0.796 23.629 0.181 A 24.545 24.545 0 0 1 26.7 0 L 36.4 0 L 36.4 7 L 30.4 7 Q 26.687 7 24.597 7.907 A 6.903 6.903 0 0 0 24.5 7.95 A 5.342 5.342 0 0 0 21.783 10.721 A 7.286 7.286 0 0 0 21.55 11.3 Q 20.7 13.7 20.7 18 L 20.7 28.8 A 28.705 28.705 0 0 1 20.464 32.596 Q 20.196 34.601 19.624 36.271 A 14.002 14.002 0 0 1 18.7 38.4 A 12.236 12.236 0 0 1 12.98 43.727 A 15.243 15.243 0 0 1 12.6 43.9 L 12.6 44.1 A 13.045 13.045 0 0 1 16.548 46.726 A 12.008 12.008 0 0 1 18.7 49.6 A 15.12 15.12 0 0 1 20.067 53.259 Q 20.482 54.98 20.625 57.001 A 31.233 31.233 0 0 1 20.7 59.2 L 20.7 70 A 35.174 35.174 0 0 0 20.782 72.488 Q 20.948 74.821 21.45 76.402 A 9.53 9.53 0 0 0 21.55 76.7 A 6.344 6.344 0 0 0 22.484 78.46 A 5.201 5.201 0 0 0 24.5 80.05 Q 26.513 80.961 30.086 80.999 A 29.561 29.561 0 0 0 30.4 81 L 36.4 81 L 36.4 88 Z M 55.9 0 L 91.3 81 L 83.2 81 L 47.8 0 L 55.9 0 Z M 125.4 51.7 L 95.7 51.7 L 95.7 44.3 L 125.4 44.3 L 125.4 51.7 Z" vector-effect="non-scaling-stroke"/></g></svg>