<svg width="233" height="196" viewBox="0 0 233 196" fill="none" xmlns="http://www.w3.org/2000/svg">
<g id="logo-text">
<g id="ct">
<g id="svgGroup">
<path id="c" fill-rule="evenodd" clip-rule="evenodd" d="M103.4 170H93.7C90.7867 170 88.3583 169.564 86.415 168.692C85.217 168.17 84.1395 167.407 83.25 166.45C81.166 164.173 80.0843 160.555 80.005 155.596C80.0017 155.397 80.0001 155.199 80 155V142C80.005 140.867 79.9398 139.734 79.805 138.609C79.5083 136.23 78.8733 134.31 77.9 132.85C77.3603 132.007 76.6398 131.295 75.7908 130.764C74.9417 130.234 73.9854 129.9 72.991 129.785C72.5631 129.727 72.1318 129.699 71.7 129.7H67V122.3H71.7C72.6099 122.311 73.5156 122.174 74.382 121.896C75.8339 121.409 77.0755 120.44 77.9 119.15C78.4687 118.275 78.9067 117.322 79.2 116.321C79.482 115.397 79.6897 114.372 79.823 113.246C79.9453 112.168 80.0044 111.084 80 110V97C80 91.6667 81.0833 87.8333 83.25 85.5C84.924 83.6973 87.3837 82.591 90.629 82.181C91.6479 82.0565 92.6736 81.9961 93.7 82H103.4V89H97.4C94.9247 89 92.9903 89.3023 91.597 89.907C91.5646 89.9211 91.5322 89.9354 91.5 89.95C90.279 90.5004 89.3093 91.4894 88.783 92.721C88.6971 92.9106 88.6194 93.1038 88.55 93.3C87.9833 94.9 87.7 97.1333 87.7 100V110.8C87.7053 112.069 87.6265 113.337 87.464 114.596C87.2853 115.933 87.0053 117.158 86.624 118.271C86.3754 119.005 86.0664 119.717 85.7 120.4C84.427 122.753 82.4178 124.625 79.98 125.727C79.8541 125.786 79.7275 125.844 79.6 125.9V126.1C81.0654 126.727 82.4035 127.617 83.548 128.726C84.4053 129.571 85.1308 130.54 85.7 131.6C86.312 132.755 86.7715 133.985 87.067 135.259C87.3437 136.406 87.5297 137.654 87.625 139.001C87.6758 139.733 87.7008 140.466 87.7 141.2V152C87.698 152.83 87.7253 153.66 87.782 154.488C87.8927 156.043 88.1153 157.348 88.45 158.402C88.4817 158.502 88.515 158.601 88.55 158.7C88.7667 159.332 89.0819 159.926 89.484 160.46C90.0126 161.15 90.7057 161.697 91.5 162.05C92.842 162.657 94.704 162.974 97.086 162.999C97.1907 163 97.2953 163 97.4 163H103.4V170Z" fill="black"/>
<path id="t" fill-rule="evenodd" clip-rule="evenodd" d="M122.9 82L158.3 163H150.2L114.8 82H122.9Z" fill="black"/>
<path id="dash" fill-rule="evenodd" clip-rule="evenodd" d="M166.7 133.4H137V126H166.7V133.4Z" fill="black"/>
</g>
</g>
</g>
</svg>
